<?xml version="1.0" encoding="utf-8"?>
<!-- Generator: Adobe Illustrator 27.0.0, SVG Export Plug-In . SVG Version: 6.00 Build 0)  -->
<svg version="1.1" id="Layer_1" xmlns="http://www.w3.org/2000/svg" xmlns:xlink="http://www.w3.org/1999/xlink" x="0px" y="0px"
	 viewBox="0 0 841.89 595.28" style="enable-background:new 0 0 841.89 595.28;" xml:space="preserve">
<style type="text/css">
	.st0{fill:#0F6011;}
	.st1{font-family:'VodafoneRg-Bold';}
	.st2{font-size:38.4095px;}
	.st3{font-family:'Gilroy-Medium';}
	.st4{font-size:16.9906px;}
</style>
<g>
	<text transform="matrix(1 0 0 1 369.1572 367.4002)" class="st0 st1 st2">ESSENTIALS</text>
	<path class="st0" d="M269.82,329.68v-63.47h12.47l24.46,39.59v-39.59h11.99v63.47h-10.66l-26.17-41.96v41.96H269.82z"/>
	<path class="st0" d="M325.48,329.68v-63.47h41.39v11.51h-29.21v14.46h24.17v11.51h-24.17v14.46h31.31v11.51H325.48z"/>
	<path class="st0" d="M447.23,331.01c-4.12,0-7.91-0.73-11.37-2.19c-3.46-1.46-6.42-3.6-8.9-6.42c-2.47-2.82-4.39-6.26-5.76-10.32
		c-1.36-4.06-2.05-8.69-2.05-13.89c0-5.71,0.73-10.64,2.19-14.8c1.46-4.15,3.43-7.61,5.9-10.37c2.47-2.76,5.31-4.81,8.52-6.14
		c3.2-1.33,6.58-2,10.13-2c5.46,0,9.93,1.03,13.42,3.09c3.49,2.06,6.12,4.71,7.9,7.95l-8.37,7.71c-0.83-1.46-1.84-2.74-3.05-3.85
		c-1.21-1.11-2.7-2-4.47-2.66c-1.78-0.67-3.55-1-5.33-1c-2.92,0-5.55,1.02-7.9,3.05c-2.35,2.03-4.03,4.77-5.04,8.23
		c-1.02,3.46-1.52,7.06-1.52,10.8c0,4.82,0.86,9.02,2.57,12.61c1.71,3.58,3.84,5.96,6.38,7.14c2.54,1.18,5.01,1.76,7.42,1.76
		c2.54,0,4.58-0.14,6.14-0.43c1.55-0.29,2.46-0.49,2.71-0.62v-11.42h-9.9v-10.94h21.32v30.55c-1.59,1.01-4.19,1.97-7.8,2.85
		S452.37,331.01,447.23,331.01z"/>
	<path class="st0" d="M473.92,329.68v-63.47h41.39v11.51H486.1v14.46h24.17v11.51H486.1v14.46h31.31v11.51H473.92z"/>
	<path class="st0" d="M522.16,329.68v-63.47h12.47l24.46,39.59v-39.59h11.99v63.47h-10.66l-26.17-41.96v41.96H522.16z"/>
	<polygon class="st0" points="269.82,258.35 269.82,243.08 327.52,191.58 385.2,243.08 385.2,258.35 327.52,206.85 	"/>
	<polygon class="st0" points="401.89,296.66 414.49,275.56 419.25,267.58 419.25,266.21 406.27,266.21 405.51,267.54 395.33,285.52 
		384.29,266.21 370.49,266.21 388.76,296.66 369.16,329.68 382.76,329.68 395.33,307.79 407.89,329.68 421.49,329.68 	"/>
	<g>
		<rect x="318.13" y="232.57" class="st0" width="8.17" height="8.17"/>
		<rect x="331.7" y="232.57" class="st0" width="8.17" height="8.17"/>
		<rect x="318.13" y="245.42" class="st0" width="8.17" height="8.17"/>
		<rect x="331.7" y="245.42" class="st0" width="8.17" height="8.17"/>
	</g>
	<text transform="matrix(1 0 0 1 371.96 399.4773)" class="st0 st3 st4">Your Property, Our priority</text>
	<rect x="371.96" y="377.77" class="st0" width="199.11" height="0.53"/>
</g>
</svg>
