<?xml version="1.0" standalone="no"?>
<!DOCTYPE svg PUBLIC "-//W3C//DTD SVG 20010904//EN"
 "http://www.w3.org/TR/2001/REC-SVG-20010904/DTD/svg10.dtd">
<svg version="1.0" xmlns="http://www.w3.org/2000/svg"
 width="636.000000pt" height="255.000000pt" viewBox="0 0 636.000000 255.000000"
 preserveAspectRatio="xMidYMid meet">

<g transform="translate(0.000000,255.000000) scale(0.100000,-0.100000)"
fill="#000000" stroke="none">
<path d="M4033 2050 c-59 -12 -99 -35 -148 -85 -64 -63 -88 -123 -88 -215 0
-54 6 -88 21 -120 30 -66 94 -133 155 -165 47 -23 67 -27 138 -27 93 0 149 18
207 66 l32 28 0 119 0 119 -90 0 c-50 0 -90 -4 -90 -10 0 -5 5 -21 12 -35 11
-24 22 -30 73 -37 16 -3 21 -12 23 -53 3 -61 -16 -83 -92 -109 -64 -21 -100
-20 -160 3 -128 48 -190 190 -135 311 44 97 107 135 224 135 71 0 85 -3 124
-29 46 -30 63 -28 85 7 36 57 -164 124 -291 97z"/>
<path d="M2036 2009 l29 -30 5 -267 5 -267 35 0 35 0 3 203 c2 152 5 202 15
201 6 0 41 -37 77 -81 36 -44 72 -89 81 -99 9 -10 55 -66 103 -124 85 -103 88
-106 124 -103 l37 3 3 298 2 297 -40 0 -40 0 0 -219 c0 -121 -4 -222 -9 -225
-5 -3 -64 60 -132 142 -68 81 -128 152 -134 158 -5 6 -35 41 -65 77 l-55 67
-54 0 -55 0 30 -31z"/>
<path d="M2784 1847 c-2 -7 -3 -100 -2 -207 l3 -195 168 -3 167 -2 0 39 0 40
-127 3 -128 3 -3 34 c-2 18 1 38 7 44 6 6 48 14 94 17 l82 5 0 35 0 35 -60 -3
c-33 -1 -75 -5 -93 -8 l-33 -5 3 53 3 53 118 3 117 3 0 34 0 35 -155 0 c-117
0 -157 -3 -161 -13z"/>
<path d="M3270 1854 c0 -4 32 -47 70 -95 39 -49 70 -91 70 -94 0 -3 -35 -49
-78 -103 -105 -130 -102 -122 -44 -122 l49 0 58 75 c31 41 62 75 69 75 6 0 24
-19 41 -42 65 -93 84 -108 131 -108 24 0 44 2 44 5 0 3 -36 53 -81 111 -44 57
-79 110 -76 117 3 6 35 49 71 94 36 45 66 84 66 87 0 3 -21 6 -47 6 -47 -1
-49 -2 -92 -60 -25 -33 -50 -60 -56 -60 -6 0 -31 27 -56 60 -43 58 -45 59 -91
60 -27 0 -48 -3 -48 -6z"/>
<path d="M4522 1653 l3 -208 168 -3 167 -2 0 39 0 40 -127 3 -128 3 0 40 c0
47 13 52 118 54 l68 1 -3 38 c-3 37 -3 37 -48 37 -25 0 -66 -3 -92 -7 l-48 -8
0 50 0 50 120 0 120 0 0 40 0 40 -160 0 -160 0 2 -207z"/>
<path d="M5001 1823 c16 -32 19 -60 19 -210 l0 -173 35 0 35 0 0 129 c0 72 4
132 9 136 6 3 60 -55 122 -130 108 -130 113 -135 151 -135 l38 0 0 211 0 210
-37 -3 -38 -3 -3 -137 c-1 -76 -6 -138 -10 -137 -4 0 -32 29 -62 65 -30 36
-68 80 -83 97 -16 18 -44 51 -64 75 -33 39 -39 42 -83 42 l-48 0 19 -37z"/>
<path d="M2010 1285 c0 -3 18 -32 40 -64 34 -49 40 -66 40 -109 0 -28 5 -54
10 -57 6 -4 10 12 10 41 0 45 11 70 78 172 9 13 10 22 3 22 -6 0 -26 -25 -46
-55 -19 -30 -37 -55 -40 -55 -2 0 -20 25 -40 55 -29 46 -55 70 -55 50z"/>
<path d="M2867 1283 c-11 -10 -8 -221 3 -228 6 -4 10 14 10 48 l0 54 47 7 c80
11 105 54 58 101 -18 19 -35 25 -68 25 -24 0 -47 -3 -50 -7z m104 -23 c21 -12
25 -50 7 -68 -7 -7 -31 -12 -55 -12 l-43 0 0 45 c0 45 0 45 36 45 19 0 44 -5
55 -10z"/>
<path d="M3930 1234 c0 -9 -8 -23 -17 -30 -17 -13 -17 -13 0 -14 14 0 17 -10
17 -58 0 -64 11 -83 50 -81 23 2 23 2 3 6 -26 5 -36 32 -31 89 2 32 7 40 26
42 26 4 20 22 -9 22 -10 0 -19 6 -19 14 0 8 -4 18 -10 21 -5 3 -10 -1 -10 -11z"/>
<path d="M4830 1230 c0 -11 -7 -20 -15 -20 -8 0 -15 -4 -15 -10 0 -5 7 -10 15
-10 12 0 15 -13 15 -58 0 -64 11 -82 50 -82 l25 0 -25 13 c-22 11 -25 19 -25
67 0 49 2 55 23 58 28 4 29 22 1 22 -12 0 -23 8 -26 20 -3 11 -9 20 -14 20 -5
0 -9 -9 -9 -20z"/>
<path d="M2268 1195 c-44 -24 -47 -99 -5 -134 26 -21 87 -10 110 21 28 37 17
92 -23 113 -35 18 -47 18 -82 0z m84 -22 c37 -33 9 -113 -40 -113 -27 0 -62
37 -62 67 0 55 62 83 102 46z"/>
<path d="M2684 1196 c-13 -10 -23 -11 -31 -4 -10 8 -13 -6 -11 -68 1 -57 3
-65 5 -30 4 52 27 96 49 96 8 0 14 5 14 10 0 13 -3 13 -26 -4z"/>
<path d="M3104 1196 c-13 -10 -23 -11 -31 -4 -10 8 -13 -6 -13 -66 0 -44 4
-76 10 -76 6 0 10 21 10 48 0 50 21 92 46 92 8 0 14 5 14 10 0 14 -13 12 -36
-4z"/>
<path d="M3230 1203 c-33 -12 -50 -37 -50 -73 0 -97 137 -109 156 -13 5 27 1
37 -24 63 -29 29 -50 35 -82 23z m74 -35 c22 -31 20 -58 -6 -85 -28 -30 -53
-29 -83 2 -29 28 -31 46 -9 80 22 33 76 35 98 3z"/>
<path d="M3437 1199 c-10 -6 -25 -8 -33 -5 -12 4 -14 -13 -12 -107 0 -74 3
-97 7 -67 4 34 10 44 21 41 8 -2 31 -6 51 -9 30 -3 40 1 58 23 26 33 27 75 4
104 -21 25 -71 36 -96 20z m75 -26 c24 -21 23 -68 -2 -93 -54 -54 -130 23 -88
90 16 25 64 27 90 3z"/>
<path d="M3627 1190 c-22 -17 -27 -30 -27 -65 0 -34 5 -46 25 -59 27 -18 90
-22 100 -5 10 16 -4 24 -17 11 -18 -18 -53 -14 -73 8 -30 33 -13 50 50 50 46
0 55 3 55 18 0 52 -68 77 -113 42z m81 -12 c26 -26 13 -38 -38 -38 -51 0 -64
12 -38 38 15 15 61 15 76 0z"/>
<path d="M3844 1199 c-3 -6 -15 -9 -25 -6 -17 5 -19 -1 -18 -71 l2 -77 7 57
c8 63 22 88 51 88 11 0 19 5 19 10 0 13 -27 13 -36 -1z"/>
<path d="M4028 1204 c-3 -2 8 -38 25 -78 34 -83 32 -121 -8 -136 -30 -11 -32
-20 -6 -20 30 0 46 23 79 107 40 106 45 123 35 123 -5 0 -17 -25 -28 -55 -10
-30 -22 -55 -26 -55 -9 0 -49 82 -49 99 0 12 -15 22 -22 15z"/>
<path d="M4368 1204 c-3 -3 -19 -6 -34 -8 l-29 -3 -2 -107 c0 -58 3 -106 8
-106 5 0 9 20 9 45 0 42 11 58 25 35 11 -17 70 -11 92 10 31 28 36 55 18 89
-20 40 -68 65 -87 45z m54 -31 c28 -25 24 -79 -7 -99 -57 -37 -119 33 -81 91
19 29 60 33 88 8z"/>
<path d="M4534 1196 c-17 -13 -15 -14 21 -9 30 4 44 1 54 -11 17 -21 6 -36
-27 -36 -54 0 -91 -47 -60 -78 16 -16 75 -15 82 1 5 10 7 10 12 0 3 -7 10 -13
16 -13 6 0 9 25 6 66 -3 50 -9 70 -23 80 -24 18 -56 18 -81 0z m83 -81 c7 -21
-26 -57 -50 -53 -11 2 -25 11 -31 21 -9 15 -7 21 8 33 26 19 65 18 73 -1z"/>
<path d="M4700 1132 c0 -53 4 -81 10 -77 6 3 10 30 10 60 0 50 2 54 30 67 17
7 30 16 30 20 0 12 -18 10 -40 -4 -17 -11 -22 -10 -30 2 -7 10 -10 -11 -10
-68z"/>
<path d="M4940 1131 c0 -47 4 -81 10 -81 6 0 10 24 10 53 1 60 17 87 53 87 34
0 41 -13 48 -85 l6 -60 1 73 c2 68 1 73 -23 84 -19 8 -31 8 -51 -1 -20 -9 -30
-9 -40 0 -12 10 -14 -2 -14 -70z"/>
<path d="M5156 1189 c-33 -26 -37 -88 -6 -119 22 -22 94 -28 105 -9 11 17 -2
22 -25 9 -26 -14 -57 -5 -71 22 -15 28 2 38 69 38 28 0 52 2 52 5 0 4 -7 19
-15 34 -23 46 -66 54 -109 20z m82 -11 c26 -26 13 -38 -38 -38 -52 0 -60 8
-34 34 18 19 55 21 72 4z"/>
<path d="M5330 1133 c0 -49 4 -83 10 -83 6 0 10 24 10 53 0 54 19 87 48 87 7
0 12 5 12 10 0 14 -16 13 -40 -2 -17 -11 -22 -10 -30 2 -7 10 -10 -11 -10 -67z"/>
<path d="M2452 1140 c-1 -41 3 -71 10 -78 14 -14 57 -16 78 -2 9 5 19 5 27 -2
10 -8 13 5 13 66 0 44 -4 76 -10 76 -5 0 -10 -18 -10 -39 0 -53 -14 -88 -40
-96 -36 -11 -59 19 -63 84 l-3 56 -2 -65z"/>
</g>
</svg>
